
      <svg data-logo="logo" xmlns="http://www.w3.org/2000/svg" viewBox="0 0 239.3300018310547 42" width="239.3300018310547" height="42">
        <g id="logogram" transform="
    translate(0, 0.5)
    rotate(0 33.5 20.5)
    
  "><path d="M0.452637 20.81C0.452637 9.76427 9.40694 0.809967 20.4526 0.809967H46.7026C57.7484 0.809967 66.7026 9.76427 66.7026 20.81V40.81H20.4526C9.40694 40.81 0.452637 31.8557 0.452637 20.81Z" fill="#4845D2"/><path d="M46.7026 8.30997H20.4526C13.5491 8.30997 7.95264 13.9064 7.95264 20.81C7.95264 27.7135 13.5491 33.31 20.4526 33.31H46.7026C53.6062 33.31 59.2026 27.7135 59.2026 20.81C59.2026 13.9064 53.6062 8.30997 46.7026 8.30997Z" fill="#A5B4FC"/><path d="M20.4526 27.06C23.9044 27.06 26.7026 24.2617 26.7026 20.81C26.7026 17.3582 23.9044 14.56 20.4526 14.56C17.0009 14.56 14.2026 17.3582 14.2026 20.81C14.2026 24.2617 17.0009 27.06 20.4526 27.06Z" fill="black"/><path d="M17.9526 19.56C18.643 19.56 19.2026 19.0003 19.2026 18.31C19.2026 17.6196 18.643 17.06 17.9526 17.06C17.2623 17.06 16.7026 17.6196 16.7026 18.31C16.7026 19.0003 17.2623 19.56 17.9526 19.56Z" fill="white"/><path d="M47.9526 27.06C51.4044 27.06 54.2026 24.2617 54.2026 20.81C54.2026 17.3582 51.4044 14.56 47.9526 14.56C44.5009 14.56 41.7026 17.3582 41.7026 20.81C41.7026 24.2617 44.5009 27.06 47.9526 27.06Z" fill="black"/><path d="M45.4526 19.56C46.143 19.56 46.7026 19.0003 46.7026 18.31C46.7026 17.6196 46.143 17.06 45.4526 17.06C44.7623 17.06 44.2026 17.6196 44.2026 18.31C44.2026 19.0003 44.7623 19.56 45.4526 19.56Z" fill="white"/></g>
        <g id="logotype" transform="translate(73, 7.81201171875)"><path fill="#111111" d="M15.69 26.34L15.69 26.34Q11.73 26.34 9.44 24.27Q7.16 22.19 7.16 18.34L7.16 18.34L7.16 16.86L12.37 16.86L12.37 18.43Q12.37 20.26 13.27 21.20Q14.17 22.14 15.69 22.14L15.69 22.14Q17.21 22.14 18.10 21.20Q18.99 20.26 18.99 18.41L18.99 18.41L18.99 0.54L24.15 0.54L24.15 18.33Q24.15 22.19 21.89 24.27Q19.64 26.34 15.69 26.34ZM34.91 26.38L34.91 26.38Q32.04 26.38 29.94 25.14Q27.84 23.90 26.70 21.68Q25.57 19.47 25.57 16.53L25.57 16.53Q25.57 13.56 26.70 11.35Q27.84 9.13 29.94 7.89Q32.04 6.65 34.91 6.65L34.91 6.65Q37.80 6.65 39.90 7.89Q41.99 9.13 43.13 11.35Q44.26 13.56 44.26 16.53L44.26 16.53Q44.26 19.47 43.13 21.68Q41.99 23.90 39.90 25.14Q37.80 26.38 34.91 26.38ZM34.91 22.34L34.91 22.34Q36.28 22.34 37.20 21.58Q38.13 20.82 38.59 19.50Q39.05 18.17 39.05 16.52L39.05 16.52Q39.05 14.82 38.59 13.51Q38.13 12.19 37.20 11.44Q36.28 10.69 34.91 10.69L34.91 10.69Q33.55 10.69 32.63 11.44Q31.72 12.19 31.26 13.51Q30.80 14.82 30.80 16.52L30.80 16.52Q30.80 18.17 31.26 19.50Q31.72 20.82 32.63 21.58Q33.55 22.34 34.91 22.34ZM56.26 26.32L56.26 26.32Q54.70 26.32 53.63 25.79Q52.55 25.27 51.87 24.49Q51.20 23.71 50.84 22.94L50.84 22.94L50.60 22.94L50.60 26L45.56 26L45.56 0.54L50.69 0.54L50.69 10.11L50.84 10.11Q51.20 9.35 51.86 8.55Q52.51 7.75 53.59 7.20Q54.67 6.65 56.29 6.65L56.29 6.65Q58.41 6.65 60.17 7.75Q61.93 8.84 62.98 11.03Q64.03 13.22 64.03 16.48L64.03 16.48Q64.03 19.66 63.01 21.86Q61.98 24.05 60.22 25.19Q58.46 26.32 56.26 26.32ZM54.68 22.21L54.68 22.21Q56.02 22.21 56.93 21.47Q57.85 20.74 58.32 19.44Q58.79 18.14 58.79 16.46L58.79 16.46Q58.79 14.79 58.32 13.51Q57.85 12.23 56.94 11.49Q56.03 10.76 54.68 10.76L54.68 10.76Q53.37 10.76 52.45 11.47Q51.52 12.17 51.04 13.45Q50.57 14.72 50.57 16.46L50.57 16.46Q50.57 18.19 51.05 19.48Q51.54 20.77 52.46 21.49Q53.39 22.21 54.68 22.21ZM72.23 4.86L64.44 4.86L64.44 0.54L85.24 0.54L85.24 4.86L77.46 4.86L77.46 26L72.23 26L72.23 4.86ZM91.56 26L86.43 26L86.43 6.89L91.39 6.89L91.39 10.23L91.59 10.23Q92.12 8.45 93.36 7.54Q94.60 6.64 96.21 6.64L96.21 6.64Q96.60 6.64 97.06 6.68Q97.51 6.72 97.87 6.81L97.87 6.81L97.87 11.39Q97.53 11.27 96.88 11.20Q96.23 11.13 95.65 11.13L95.65 11.13Q94.48 11.13 93.54 11.64Q92.60 12.14 92.08 13.04Q91.56 13.93 91.56 15.13L91.56 15.13L91.56 26ZM103.74 26.38L103.74 26.38Q101.93 26.38 100.49 25.74Q99.04 25.09 98.22 23.82Q97.39 22.55 97.39 20.65L97.39 20.65Q97.39 19.06 97.98 17.98Q98.57 16.91 99.58 16.26Q100.60 15.61 101.89 15.27Q103.18 14.93 104.60 14.79L104.60 14.79Q106.26 14.62 107.27 14.47Q108.29 14.33 108.76 14.01Q109.23 13.70 109.23 13.08L109.23 13.08L109.23 12.99Q109.23 12.17 108.89 11.61Q108.55 11.05 107.88 10.75Q107.21 10.45 106.24 10.45L106.24 10.45Q105.25 10.45 104.51 10.75Q103.78 11.05 103.32 11.54Q102.85 12.04 102.63 12.65L102.63 12.65L97.93 11.87Q98.43 10.21 99.57 9.05Q100.72 7.88 102.42 7.27Q104.12 6.65 106.24 6.65L106.24 6.65Q107.79 6.65 109.25 7.02Q110.70 7.39 111.85 8.16Q113.01 8.93 113.68 10.16Q114.36 11.39 114.36 13.13L114.36 13.13L114.36 26L109.50 26L109.50 23.35L109.33 23.35Q108.87 24.24 108.10 24.91Q107.33 25.59 106.25 25.98Q105.16 26.38 103.74 26.38ZM105.20 22.77L105.20 22.77Q106.41 22.77 107.32 22.29Q108.24 21.81 108.75 20.99Q109.26 20.17 109.26 19.16L109.26 19.16L109.26 17.10Q109.04 17.27 108.58 17.40Q108.12 17.54 107.55 17.64Q106.99 17.75 106.44 17.83Q105.90 17.92 105.47 17.97L105.47 17.97Q104.53 18.10 103.81 18.41Q103.09 18.72 102.70 19.22Q102.31 19.73 102.31 20.51L102.31 20.51Q102.31 21.25 102.68 21.75Q103.06 22.26 103.70 22.51Q104.34 22.77 105.20 22.77ZM124.59 16.48L121.10 20.41L121.10 14.24L121.87 14.24L128.13 6.89L134.06 6.89L125.80 16.48L124.59 16.48ZM121.58 26L116.46 26L116.46 0.54L121.58 0.54L121.58 26ZM134.42 26L128.39 26L122.64 17.63L126.08 13.99L134.42 26ZM143.11 26.38L143.11 26.38Q140.19 26.38 138.07 25.18Q135.95 23.98 134.82 21.78Q133.68 19.57 133.68 16.55L133.68 16.55Q133.68 13.59 134.81 11.37Q135.94 9.15 138.00 7.90Q140.07 6.65 142.86 6.65L142.86 6.65Q144.74 6.65 146.36 7.25Q147.99 7.85 149.22 9.06Q150.45 10.26 151.14 12.07Q151.83 13.88 151.83 16.34L151.83 16.34L151.83 17.78L135.78 17.78L135.78 14.57L149.32 14.57L146.93 15.42Q146.93 13.93 146.47 12.83Q146.02 11.73 145.12 11.12Q144.23 10.52 142.89 10.52L142.89 10.52Q141.58 10.52 140.65 11.13Q139.71 11.75 139.24 12.80Q138.76 13.85 138.76 15.20L138.76 15.20L138.76 17.47Q138.76 19.13 139.31 20.26Q139.87 21.39 140.87 21.95Q141.87 22.51 143.20 22.51L143.20 22.51Q144.11 22.51 144.84 22.26Q145.58 22.00 146.10 21.50Q146.62 20.99 146.89 20.26L146.89 20.26L151.54 21.13Q151.08 22.70 149.93 23.89Q148.79 25.08 147.07 25.73Q145.35 26.38 143.11 26.38ZM158.19 26L153.06 26L153.06 6.89L158.01 6.89L158.01 10.23L158.22 10.23Q158.75 8.45 159.99 7.54Q161.23 6.64 162.83 6.64L162.83 6.64Q163.23 6.64 163.68 6.68Q164.13 6.72 164.49 6.81L164.49 6.81L164.49 11.39Q164.15 11.27 163.50 11.20Q162.85 11.13 162.27 11.13L162.27 11.13Q161.11 11.13 160.17 11.64Q159.23 12.14 158.71 13.04Q158.19 13.93 158.19 15.13L158.19 15.13L158.19 26Z"/></g>
        
      </svg>
    